<?xml version="1.0" encoding="UTF-8"?>
<svg width="24" height="24" version="1.1" viewBox="0 0 24 24" xmlns="http://www.w3.org/2000/svg" xmlns:cc="http://creativecommons.org/ns#" xmlns:dc="http://purl.org/dc/elements/1.1/" xmlns:rdf="http://www.w3.org/1999/02/22-rdf-syntax-ns#">
	<style>
		@media (prefers-color-scheme:dark){path{fill:#fff}}
	</style>
	<path d="m2.666 0c-1.48 0-2.666 1.1993-2.666 2.666v18.668c0 1.4667 1.186 2.666 2.666 2.666h18.668c1.4667 0 2.666-1.1993 2.666-2.666v-18.668c0-1.4667-1.1993-2.666-2.666-2.666h-18.668zm13.572 5.2617c0.276 0 0.5 0.224 0.5 0.5 0 0.276-0.224 0.5-0.5 0.5s-0.5-0.224-0.5-0.5c0-0.276 0.224-0.5 0.5-0.5zm-7.0625 0.37695 0.70898 0.70898-1.416 1.4141 1.4141 1.4141-0.70703 0.70703-1.4141-1.4141-1.4141 1.4141-0.70898-0.70703 1.4141-1.4141-1.4141-1.4141 0.70703-0.70703 1.416 1.4141 1.4141-1.416zm4.5625 1.623h5v1h-5v-1zm2.5 2c0.276 0 0.5 0.224 0.5 0.5 0 0.276-0.224 0.5-0.5 0.5s-0.5-0.224-0.5-0.5c0-0.276 0.224-0.5 0.5-0.5zm-8.9766 4.4766h1v2h2v1h-2v2h-1v-2h-2v-1h2v-2zm6.4766 1h5v1h-5v-1zm0 2h5v1h-5v-1z" fill="#673ab7" stroke-width="1.3333" />
</svg>
