<?xml version="1.0" standalone="no"?>
<!DOCTYPE svg PUBLIC "-//W3C//DTD SVG 20010904//EN"
 "http://www.w3.org/TR/2001/REC-SVG-20010904/DTD/svg10.dtd">
<svg version="1.0" xmlns="http://www.w3.org/2000/svg"
 width="700.000000pt" height="700.000000pt" viewBox="0 0 700.000000 700.000000"
 preserveAspectRatio="xMidYMid meet">
<metadata>
Created by potrace 1.11, written by Peter Selinger 2001-2013
</metadata>
<g transform="translate(0.000000,700.000000) scale(0.100000,-0.100000)"
fill="#000000" stroke="none">
<path d="M630 6985 c-250 -51 -452 -211 -563 -447 -14 -32 -29 -68 -32 -80 -3
-13 -12 -50 -19 -83 -12 -51 -14 -489 -13 -2895 l2 -2835 21 -72 c25 -83 81
-198 126 -257 122 -160 306 -274 495 -305 82 -14 5630 -13 5703 0 269 50 490
229 594 479 59 143 56 -40 53 3040 -2 1554 -5 2832 -8 2840 -3 8 -13 42 -23
74 -81 273 -293 467 -591 543 -16 4 -1301 8 -2855 9 -2299 2 -2837 0 -2890
-11z m4185 -1545 c112 -69 71 -241 -64 -265 -101 -18 -195 111 -147 203 44 84
133 110 211 62z m-2760 -290 c110 -110 204 -200 208 -200 5 0 98 90 208 200
109 110 202 200 207 200 4 0 52 -45 106 -101 l100 -100 -207 -207 -207 -207
206 -206 206 -206 -103 -102 -103 -102 -205 205 -206 206 -207 -207 -206 -206
-101 99 c-55 54 -101 102 -101 106 0 4 90 98 200 208 110 110 200 203 200 207
0 4 -91 99 -202 210 l-203 203 100 100 c55 55 102 100 105 100 3 0 95 -90 205
-200z m3391 -269 c20 -1 20 -6 20 -143 l-1 -143 -730 -3 -730 -2 0 142 c0 129
2 143 18 148 14 4 1327 5 1423 1z m-624 -612 c59 -42 73 -111 38 -184 -34 -69
-125 -97 -190 -59 -46 27 -71 65 -77 115 -12 120 129 199 229 128z m-2424
-1278 c9 -1 12 -66 12 -291 l0 -290 290 0 c225 0 290 -3 291 -12 0 -7 1 -73 2
-145 l2 -133 -25 -1 c-14 0 -145 0 -292 0 l-268 0 -2 -292 -3 -292 -139 0
c-107 0 -140 3 -144 13 -2 7 -5 138 -6 290 l-1 277 -225 2 c-124 1 -254 2
-290 2 l-66 1 0 145 1 145 291 0 291 0 0 284 c0 156 3 288 6 292 4 7 205 10
275 5z m3061 -297 c3 -3 6 -68 7 -145 l0 -139 -727 0 c-573 0 -728 3 -731 13
-3 10 -2 199 1 259 1 13 12 18 54 20 95 5 1390 -2 1396 -8z m7 -721 c0 -120
-2 -142 -15 -145 -14 -3 -1347 -2 -1421 1 l-25 1 2 127 c1 71 2 136 2 145 1
15 53 17 729 15 l727 -2 1 -142z"/>
</g>
</svg>
