<?xml version="1.0" encoding="UTF-8"?>
<svg width="24" height="24" version="1.1" viewBox="0 0 24 24" xmlns="http://www.w3.org/2000/svg">
	<rect x="0" y="0" width="24" height="24" fill="#673ab7" />
	<rect x="3.0382" y="3.416" width="17.977" height="16.503" fill="#fff" />
	<path d="m2.666 0c-1.48 0-2.666 1.1993-2.666 2.666v18.668c0 1.4667 1.186 2.666 2.666 2.666h18.668c1.4667 0 2.666-1.1993 2.666-2.666v-18.668c0-1.4667-1.1993-2.666-2.666-2.666h-18.668zm12.725 6.6094c0.2208 0 0.40039 0.17959 0.40039 0.40039s-0.17959 0.40039-0.40039 0.40039-0.40039-0.17959-0.40039-0.40039 0.17959-0.40039 0.40039-0.40039zm-5.6504 0.30078 0.56641 0.56836-1.1328 1.1309 1.1328 1.1309-0.56641 0.56641-1.1309-1.1309-1.1309 1.1309-0.56836-0.56641 1.1309-1.1309-1.1309-1.1309 0.56641-0.56641 1.1328 1.1309 1.1309-1.1328zm3.6504 1.2988h4v0.80078h-4v-0.80078zm2 1.5996c0.2208 0 0.40039 0.17959 0.40039 0.40039 0 0.2208-0.17959 0.40039-0.40039 0.40039s-0.40039-0.17959-0.40039-0.40039c0-0.2208 0.17959-0.40039 0.40039-0.40039zm-7.1816 3.582h0.80078v1.5996h1.5996v0.80078h-1.5996v1.5996h-0.80078v-1.5996h-1.5996v-0.80078h1.5996v-1.5996zm5.1816 0.80078h4v0.79883h-4v-0.79883zm0 1.5996h4v0.79883h-4v-0.79883z" fill="#673ab7" />
</svg>
